<svg xmlns="http://www.w3.org/2000/svg" viewBox="0 0 300 300" width="300" height="300">
  <defs>
    <radialGradient id="mandalaGlow" cx="50%" cy="50%" r="50%">
      <stop offset="0%" stop-color="#fdfdff" stop-opacity="0.5" />
      <stop offset="100%" stop-color="#fdfdff" stop-opacity="0" />
    </radialGradient>
  </defs>

  <rect width="300" height="300" fill="url(#mandalaGlow)" />

  <g transform="translate(150 150)">
    <circle r="88" fill="none" stroke="#8f909d" stroke-opacity="0.2" stroke-width="2" />
    <circle r="64" fill="none" stroke="#b1b2be" stroke-opacity="0.32" stroke-width="1.8" />
    <circle r="44" fill="none" stroke="#d0d1da" stroke-opacity="0.5" stroke-width="1.5" />
    <circle r="22" fill="none" stroke="#c61d82" stroke-opacity="0.2" stroke-width="1.2" />

    <g fill="#b6b7c3" fill-opacity="0.18">
      <path d="M0 -102C16 -90 16 -66 0 -54C-16 -66 -16 -90 0 -102Z" />
      <path d="M0 -102C16 -90 16 -66 0 -54C-16 -66 -16 -90 0 -102Z" transform="rotate(30)" />
      <path d="M0 -102C16 -90 16 -66 0 -54C-16 -66 -16 -90 0 -102Z" transform="rotate(60)" />
      <path d="M0 -102C16 -90 16 -66 0 -54C-16 -66 -16 -90 0 -102Z" transform="rotate(90)" />
      <path d="M0 -102C16 -90 16 -66 0 -54C-16 -66 -16 -90 0 -102Z" transform="rotate(120)" />
      <path d="M0 -102C16 -90 16 -66 0 -54C-16 -66 -16 -90 0 -102Z" transform="rotate(150)" />
      <path d="M0 -102C16 -90 16 -66 0 -54C-16 -66 -16 -90 0 -102Z" transform="rotate(180)" />
      <path d="M0 -102C16 -90 16 -66 0 -54C-16 -66 -16 -90 0 -102Z" transform="rotate(210)" />
      <path d="M0 -102C16 -90 16 -66 0 -54C-16 -66 -16 -90 0 -102Z" transform="rotate(240)" />
      <path d="M0 -102C16 -90 16 -66 0 -54C-16 -66 -16 -90 0 -102Z" transform="rotate(270)" />
      <path d="M0 -102C16 -90 16 -66 0 -54C-16 -66 -16 -90 0 -102Z" transform="rotate(300)" />
      <path d="M0 -102C16 -90 16 -66 0 -54C-16 -66 -16 -90 0 -102Z" transform="rotate(330)" />
    </g>

    <g fill="#c61d82" fill-opacity="0.16">
      <circle cx="0" cy="-74" r="4.2" />
      <circle cx="37" cy="-64" r="4.2" />
      <circle cx="64" cy="-37" r="4.2" />
      <circle cx="74" cy="0" r="4.2" />
      <circle cx="64" cy="37" r="4.2" />
      <circle cx="37" cy="64" r="4.2" />
      <circle cx="0" cy="74" r="4.2" />
      <circle cx="-37" cy="64" r="4.2" />
      <circle cx="-64" cy="37" r="4.2" />
      <circle cx="-74" cy="0" r="4.2" />
      <circle cx="-64" cy="-37" r="4.2" />
      <circle cx="-37" cy="-64" r="4.2" />
    </g>
  </g>

  <g fill="#abacb8" fill-opacity="0.22">
    <circle cx="34" cy="34" r="6" />
    <circle cx="266" cy="34" r="6" />
    <circle cx="34" cy="266" r="6" />
    <circle cx="266" cy="266" r="6" />
  </g>
</svg>
