<svg xmlns="http://www.w3.org/2000/svg" viewBox="0 0 420 260" width="420" height="260">
  <defs>
    <linearGradient id="paperTint" x1="0%" y1="0%" x2="100%" y2="100%">
      <stop offset="0%" stop-color="#fcfcff" stop-opacity="0.5" />
      <stop offset="100%" stop-color="#f5f5f8" stop-opacity="0.2" />
    </linearGradient>
  </defs>

  <rect width="420" height="260" fill="url(#paperTint)" />

  <g fill="none" stroke="#8e8f9c" stroke-opacity="0.24" stroke-width="1.8">
    <path d="M14 230C78 206 92 152 140 120C96 100 72 62 60 22" />
    <path d="M406 30C342 54 328 108 280 140C324 160 348 198 360 238" />
    <path d="M4 124H112" stroke-opacity="0.16" />
    <path d="M308 136H416" stroke-opacity="0.16" />
  </g>

  <g fill="#b8b9c5" fill-opacity="0.2">
    <path d="M146 118c14-12 34-12 48 0c-14 16-34 16-48 0Z" />
    <path d="M226 142c14-12 34-12 48 0c-14 16-34 16-48 0Z" />
    <path d="M186 98c12-10 28-10 40 0c-12 14-28 14-40 0Z" />
    <circle cx="170" cy="182" r="7" />
    <circle cx="250" cy="78" r="7" />
  </g>

  <g fill="none" stroke="#c61d82" stroke-opacity="0.18" stroke-width="1.5">
    <path d="M172 130c10-18 34-18 44 0c-10 16-34 16-44 0Z" />
    <path d="M205 110V150" />
    <path d="M186 130h38" />
  </g>

  <g fill="#c61d82" fill-opacity="0.14">
    <circle cx="112" cy="120" r="5" />
    <circle cx="308" cy="140" r="5" />
    <circle cx="130" cy="80" r="4" />
    <circle cx="290" cy="180" r="4" />
  </g>
</svg>
